<svg xmlns="http://www.w3.org/2000/svg" width="800" height="480" viewBox="0 0 800 480">
  <defs>
    <style>
      .bg { fill: #f3f1ea; }
      .panel { fill: #faf8f2; stroke: #111; stroke-width: 2; }
      .panel-soft { fill: #f8f6f0; stroke: #111; stroke-width: 2; }
      .line { stroke: #111; stroke-width: 2; }
      .label { font: 700 14px "Noto Sans SC", "PingFang SC", sans-serif; fill: #111; letter-spacing: 0.4px; }
      .label-sm { font: 600 12px "Noto Sans SC", "PingFang SC", sans-serif; fill: #111; }
      .meta { font: 600 15px "Noto Sans SC", "PingFang SC", sans-serif; fill: #111; }
      .title { font: 700 17px "Noto Sans SC", "PingFang SC", sans-serif; fill: #111; }
      .big { font: 700 42px "Noto Sans SC", "PingFang SC", sans-serif; fill: #111; letter-spacing: -1px; }
      .mid { font: 700 22px "Noto Sans SC", "PingFang SC", sans-serif; fill: #111; }
      .body { font: 500 18px "Noto Sans SC", "PingFang SC", sans-serif; fill: #111; }
      .body-sm { font: 500 16px "Noto Sans SC", "PingFang SC", sans-serif; fill: #111; }
      .mono { font: 700 15px "SFMono-Regular", "Roboto Mono", monospace; fill: #111; }
      .pill-dark { fill: #111; }
      .pill-light { fill: #faf8f2; stroke: #111; stroke-width: 2; }
      .pill-text-invert { font: 700 13px "Noto Sans SC", "PingFang SC", sans-serif; fill: #faf8f2; }
      .pill-text { font: 700 13px "Noto Sans SC", "PingFang SC", sans-serif; fill: #111; }
      .bar-bg { fill: #fff; stroke: #111; stroke-width: 2; }
      .bar-fill { fill: #111; }
    </style>
  </defs>

  <rect class="bg" x="0" y="0" width="800" height="480"/>
  <rect class="panel" x="12" y="12" width="776" height="456" rx="6"/>

  <rect class="panel-soft" x="22" y="20" width="756" height="46" rx="4"/>
  <text class="mid" x="38" y="49">InfoHub EInk</text>
  <text class="meta" x="282" y="48">刷新时间 2026-04-22 19:40</text>
  <rect class="pill-dark" x="654" y="30" width="104" height="24" rx="12"/>
  <text class="pill-text-invert" x="682" y="46">状态 正常</text>

  <rect class="panel" x="22" y="80" width="244" height="112" rx="5"/>
  <rect class="pill-light" x="36" y="94" width="36" height="36" rx="4"/>
  <text class="pill-text" x="49" y="117">C</text>
  <text class="title" x="86" y="111">Claude Relay</text>
  <text class="big" x="36" y="158">2.9M</text>
  <text class="label" x="162" y="156">Token</text>
  <line class="line" x1="36" y1="168" x2="244" y2="168"/>
  <text class="label-sm" x="36" y="184">成本 $4.39</text>

  <rect class="panel" x="278" y="80" width="244" height="112" rx="5"/>
  <rect class="pill-light" x="292" y="94" width="36" height="36" rx="4"/>
  <text class="pill-text" x="304" y="117">S</text>
  <text class="title" x="342" y="111">Sub2API</text>
  <text class="big" x="292" y="158">131.0M</text>
  <text class="label" x="456" y="156">Token</text>
  <line class="line" x1="292" y1="168" x2="500" y2="168"/>
  <text class="label-sm" x="292" y="184">成本 $47.47</text>

  <rect class="panel" x="534" y="80" width="244" height="112" rx="5"/>
  <rect class="pill-light" x="548" y="94" width="36" height="36" rx="4"/>
  <text class="pill-text" x="560" y="117">T</text>
  <text class="title" x="598" y="111">今日合计</text>
  <text class="big" x="548" y="158">133.9M</text>
  <text class="label" x="714" y="156">Token</text>
  <line class="line" x1="548" y1="168" x2="756" y2="168"/>
  <text class="label-sm" x="548" y="184">成本 $51.86</text>
  <text class="label-sm" x="676" y="184">告警 1</text>

  <rect class="panel" x="22" y="206" width="486" height="120" rx="5"/>
  <text class="mid" x="38" y="234">Claude Relay 配额</text>
  <text class="label-sm" x="38" y="255">5H 重置: 2026-04-22 19:00</text>
  <rect class="panel-soft" x="34" y="270" width="462" height="42" rx="4"/>
  <rect class="pill-light" x="414" y="279" width="68" height="22" rx="11"/>
  <text class="pill-text" x="434" y="294">正常</text>
  <text class="label-sm" x="52" y="286">5H</text>
  <rect class="bar-bg" x="82" y="276" width="150" height="14" rx="3"/>
  <rect class="bar-fill" x="84" y="278" width="144" height="10" rx="2"/>
  <text class="label-sm" x="240" y="286">100%</text>
  <text class="label-sm" x="300" y="286">Week</text>
  <rect class="bar-bg" x="350" y="276" width="150" height="14" rx="3"/>
  <rect class="bar-fill" x="352" y="278" width="100" height="10" rx="2"/>
  <text class="label-sm" x="458" y="286">67%</text>

  <rect class="panel" x="22" y="342" width="486" height="120" rx="5"/>
  <text class="mid" x="38" y="370">Sub2API 配额</text>
  <text class="label-sm" x="38" y="391">5H 重置: 2026-04-22 20:28</text>
  <rect class="panel-soft" x="34" y="406" width="462" height="42" rx="4"/>
  <rect class="pill-dark" x="404" y="415" width="78" height="22" rx="11"/>
  <text class="pill-text-invert" x="426" y="430">告警</text>
  <text class="label-sm" x="52" y="422">5H</text>
  <rect class="bar-bg" x="82" y="412" width="150" height="14" rx="3"/>
  <rect class="bar-fill" x="84" y="414" width="26" height="10" rx="2"/>
  <text class="label-sm" x="240" y="422">17%</text>
  <text class="label-sm" x="300" y="422">Week</text>
  <rect class="bar-bg" x="350" y="412" width="150" height="14" rx="3"/>
  <rect class="bar-fill" x="352" y="414" width="84" height="10" rx="2"/>
  <text class="label-sm" x="458" y="422">56%</text>

  <rect class="panel" x="522" y="206" width="256" height="256" rx="5"/>
  <text class="mid" x="540" y="234">告警与系统</text>
  <rect class="pill-dark" x="540" y="250" width="82" height="24" rx="12"/>
  <text class="pill-text-invert" x="563" y="266">重点告警</text>
  <text class="body" x="540" y="306">1. admin10010</text>
  <text class="body" x="540" y="334">5H 余量仅 17%</text>
  <line class="line" x1="540" y1="356" x2="760" y2="356"/>
  <text class="body-sm" x="540" y="388">刷新周期 300s</text>
  <text class="body-sm" x="540" y="416">按键 Force Sync / GPIO3</text>
  <text class="body-sm" x="540" y="444">显示 7.50inv2alt + 2ms</text>
</svg>
